<?xml version="1.0" encoding="UTF-8"?>
<!DOCTYPE svg PUBLIC "-//W3C//DTD SVG 1.1//EN" "http://www.w3.org/Graphics/SVG/1.1/DTD/svg11.dtd">
<svg xmlns="http://www.w3.org/2000/svg" version="1.1" width="100px" height="100px" style="shape-rendering:geometricPrecision; text-rendering:geometricPrecision; image-rendering:optimizeQuality; fill-rule:evenodd; clip-rule:evenodd" xmlns:xlink="http://www.w3.org/1999/xlink">
<g><path style="opacity:0.974" fill="#361e5c" d="M 39.5,-0.5 C 46.1667,-0.5 52.8333,-0.5 59.5,-0.5C 80.5,5.16667 93.8333,18.5 99.5,39.5C 99.5,46.1667 99.5,52.8333 99.5,59.5C 93.8333,80.5 80.5,93.8333 59.5,99.5C 52.8333,99.5 46.1667,99.5 39.5,99.5C 18.5,93.8333 5.16667,80.5 -0.5,59.5C -0.5,52.8333 -0.5,46.1667 -0.5,39.5C 5.16667,18.5 18.5,5.16667 39.5,-0.5 Z"/></g>
<g><path style="opacity:1" fill="#f3f2f4" d="M 45.5,24.5 C 48.5,24.5 51.5,24.5 54.5,24.5C 59.8295,41.4891 65.1628,58.4891 70.5,75.5C 68.076,75.8076 65.7427,75.4742 63.5,74.5C 61.5324,69.573 59.8657,64.573 58.5,59.5C 52.4908,59.3338 46.4908,59.5005 40.5,60C 38.8077,64.7453 37.3077,69.5786 36,74.5C 33.5341,75.7766 31.0341,75.7766 28.5,74.5C 34.1759,57.8051 39.8426,41.1384 45.5,24.5 Z"/></g>
<g><path style="opacity:1" fill="#37205d" d="M 48.5,32.5 C 51.5181,39.2001 54.1848,46.2001 56.5,53.5C 51.8804,54.4933 47.2137,54.8266 42.5,54.5C 44.7054,47.2178 46.7054,39.8845 48.5,32.5 Z"/></g>
</svg>
